HIERARCHY
ROOT root
{
	OFFSET	0	13.1	24.9
	CHANNELS 6  Xposition Yposition Zposition Xrotation Yrotation Zrotation
	JOINT spine_1
	{
		OFFSET	0	9.99999	0
		CHANNELS 3  Xrotation Yrotation Zrotation
		JOINT spine_2
		{
			OFFSET	0	112	-10
			CHANNELS 3  Xrotation Yrotation Zrotation
			JOINT spine_3
			{
				OFFSET	0	206.5	19.3
				CHANNELS 3  Xrotation Yrotation Zrotation
				JOINT spine_4
				{
					OFFSET	0	110.4	14.6
					CHANNELS 3  Xrotation Yrotation Zrotation
					JOINT neck_1
					{
						OFFSET	0	71.8	-50.3
						CHANNELS 3  Xrotation Yrotation Zrotation
						JOINT neck_2
						{
							OFFSET	0	86.2	-25.8
							CHANNELS 3  Xrotation Yrotation Zrotation
							JOINT head_ee
							{
								OFFSET	0	179.8	-8.7
								CHANNELS 3  Xrotation Yrotation Zrotation
								End Site
								{
									OFFSET	1	0	0
								}
							}
						}
					}
					JOINT left_clavicle
					{
						OFFSET	-43.2	22.4	-70.8
						CHANNELS 3  Xrotation Yrotation Zrotation
						JOINT left_shoulder
						{
							OFFSET	-93.9	-5.79999	48.7
							CHANNELS 3  Xrotation Yrotation Zrotation
							JOINT left_elbow
							{
								OFFSET	-291.4	-30.8	15.2
								CHANNELS 3  Xrotation Yrotation Zrotation
								JOINT left_lowarm_twist
								{
									OFFSET	-110.7	-3.89999	13.6
									CHANNELS 3  Xrotation Yrotation Zrotation
									JOINT left_hand
									{
										OFFSET	-110.7	-3.89999	13.6
										CHANNELS 3  Xrotation Yrotation Zrotation
										JOINT left_ee
										{
											OFFSET	-80.8	-5.10001	12.1
											CHANNELS 3  Xrotation Yrotation Zrotation
											End Site
											{
												OFFSET	1	0	0
											}
										}
									}
								}
							}
						}
					}
					JOINT right_clavicle
					{
						OFFSET	43.2	22.4	-70.8
						CHANNELS 3  Xrotation Yrotation Zrotation
						JOINT right_shoulder
						{
							OFFSET	93.9	-5.79999	48.7
							CHANNELS 3  Xrotation Yrotation Zrotation
							JOINT right_elbow
							{
								OFFSET	291.4	-30.8	15.2
								CHANNELS 3  Xrotation Yrotation Zrotation
								JOINT right_lowarm_twist
								{
									OFFSET	110.7	-3.89999	13.6
									CHANNELS 3  Xrotation Yrotation Zrotation
									JOINT right_hand
									{
										OFFSET	110.7	-3.89999	13.6
										CHANNELS 3  Xrotation Yrotation Zrotation
										JOINT right_ee
										{
											OFFSET	80.8	-5.10001	12.1
											CHANNELS 3  Xrotation Yrotation Zrotation
											End Site
											{
												OFFSET	1	0	0
											}
										}
									}
								}
							}
						}
					}
				}
			}
		}
	}
	JOINT left_hip
	{
		OFFSET	-82.8	-127.5	0.300001
		CHANNELS 3  Xrotation Yrotation Zrotation
		JOINT left_knee
		{
			OFFSET	-28.2	-396.7	2.2
			CHANNELS 3  Xrotation Yrotation Zrotation
			JOINT left_ankle
			{
				OFFSET	-11.7	-411.3	35.4
				CHANNELS 3  Xrotation Yrotation Zrotation
				JOINT left_toes
				{
					OFFSET	0	-60	-88.6
					CHANNELS 3  Xrotation Yrotation Zrotation
					JOINT left_foot_ee
					{
						OFFSET	-22.5	-16.5	-42.2
						CHANNELS 3  Xrotation Yrotation Zrotation
						End Site
						{
							OFFSET	1	0	0
						}
					}
				}
			}
		}
	}
	JOINT right_hip
	{
		OFFSET	82.8	-127.5	0.300001
		CHANNELS 3  Xrotation Yrotation Zrotation
		JOINT right_knee
		{
			OFFSET	28.2	-396.7	2.2
			CHANNELS 3  Xrotation Yrotation Zrotation
			JOINT right_ankle
			{
				OFFSET	11.7	-411.3	35.4
				CHANNELS 3  Xrotation Yrotation Zrotation
				JOINT right_toes
				{
					OFFSET	0	-60	-88.6
					CHANNELS 3  Xrotation Yrotation Zrotation
					JOINT right_foot_ee
					{
						OFFSET	22.5	-16.5	-42.2
						CHANNELS 3  Xrotation Yrotation Zrotation
						End Site
						{
							OFFSET	1	0	0
						}
					}
				}
			}
		}
	}
}
MOTION
Frames: 5
Frame Time: 0.02
2832.36 726.965 -1063.19 -10.0633 53.6464 13.3105 2.35113 -0.19906 -1.61171 2.35257 -0.0961129 -1.62111 2.3551 0.180621 -1.61388 2.35148 -0.0764937 -1.62215 -7.57285 12.2748 -0.58342 -7.60231 23.2979 2.04835 -0.0 0.0 -0.0 -0.050637 15.8115 1.77798 -20.4356 -62.6076 90.1229 0.201028 -5.68709 0.009985 6.86949 0.190892 -0.856205 -1.01509 -0.143887 -6.8581 -0.0 0.0 -0.0 11.6028 17.9954 -23.1535 -80.8355 67.7566 10.0893 0.662109 18.159 -0.105811 -5.18968 0.211507 -0.628547 -4.93246 -4.42027 32.4194 0.0 0.0 0.0 26.1504 10.8789 -13.1852 -45.1159 -0.823894 6.69911 -18.0927 -20.0771 3.10151 -15.5857 0.0 0.0 -0.0 0.0 -0.0 20.1579 24.7914 -13.1617 -14.9125 -0.321537 -2.25947 4.88843 -15.1365 0.711442 36.9147 -0.0 -0.0 0.0 0.0 0.0 
2823.64 728.019 -1072.41 -9.84448 52.6257 13.0189 2.38635 -0.0282984 -1.50262 2.38761 0.0673637 -1.50138 2.38561 0.320651 -1.46829 2.38262 0.084765 -1.5005 -10.0423 12.2508 -0.365509 -10.227 23.3247 2.77607 -0.0 0.0 -0.0 -0.489674 17.6844 1.32176 -24.0822 -60.2361 87.1253 0.247825 -6.99907 0.0151556 5.53062 0.16177 -0.687658 -0.739591 -0.556944 -5.18764 -0.0 0.0 -0.0 11.9573 18.5071 -23.9338 -83.6631 67.7435 14.5145 0.640729 17.6095 -0.0992453 -6.51124 0.274408 -0.785387 -4.9863 -5.09813 32.4077 0.0 0.0 0.0 31.4189 10.3033 -14.4393 -44.4244 -0.771965 6.60625 -21.5608 -21.0194 3.73319 -17.2854 0.0 0.0 -0.0 0.0 -0.0 17.4367 24.666 -12.8789 -12.2596 -0.307558 -1.85271 3.98817 -16.1115 0.583141 35.3468 -0.0 -0.0 0.0 0.0 0.0 
2807.01 726.91 -1083.23 -11.3616 52.3999 14.1077 2.56676 -0.0741175 -1.5175 2.56804 0.0225836 -1.51914 2.56716 0.274778 -1.49426 2.56405 0.0353677 -1.51889 -11.6401 12.2879 -0.236866 -11.9292 23.4357 3.25565 -0.0 0.0 -0.0 -0.792762 18.8383 1.01291 -25.7157 -58.5031 85.4899 0.269655 -7.60866 0.0179309 5.66471 0.164864 -0.704508 -0.431103 -0.870975 -3.25416 -0.0 0.0 -0.0 12.5728 21.1672 -25.1657 -84.1324 68.0142 17.235 0.538564 14.9381 -0.070608 -7.76784 0.337565 -0.933153 -5.22802 -6.81774 33.1734 0.0 0.0 0.0 33.5912 7.85974 -13.9536 -43.9175 -0.734621 6.5378 -21.4792 -22.1457 3.76198 -18.6929 0.0 0.0 -0.0 0.0 -0.0 15.6088 24.4037 -13.1855 -10.6909 -0.290435 -1.61262 5.31907 -17.4305 0.777606 35.3352 -0.0 -0.0 0.0 0.0 0.0 
2795.49 725.71 -1088.62 -10.8782 52.2367 13.8622 2.65948 -0.0701416 -1.45564 2.66066 0.0226169 -1.45716 2.6598 0.262185 -1.43356 2.65694 0.0325163 -1.45697 -12.6362 12.3045 -0.128255 -12.9907 23.469 3.58289 -0.0 0.0 -0.0 -0.975513 20.0774 0.911303 -26.6083 -57.184 85.1067 0.286149 -8.06811 0.0201804 5.81703 0.168331 -0.723657 -0.217902 -1.00425 -1.88277 -0.0 0.0 -0.0 13.1268 22.7754 -26.3121 -84.5042 68.2864 17.8143 0.459657 12.8278 -0.0516718 -8.64021 0.383314 -1.03492 -5.41935 -8.15123 33.764 0.0 0.0 0.0 34.2728 5.49883 -13.92 -44.1987 -0.755259 6.5758 -21.403 -23.0253 3.78376 -19.6541 0.0 0.0 -0.0 0.0 -0.0 14.3275 24.2275 -13.3721 -9.69164 -0.276105 -1.45996 6.4069 -18.3029 0.936188 35.4251 -0.0 -0.0 0.0 0.0 0.0 
2777.36 723.384 -1096.38 -9.08623 52.6529 12.0782 2.47391 -0.0870445 -1.37079 2.47495 0.000350221 -1.37355 2.47475 0.230822 -1.35402 2.47219 0.0141047 -1.37347 -12.8434 12.835 -0.013309 -13.2447 24.4213 3.91159 -0.0 0.0 -0.0 -1.11837 21.2385 0.867858 -27.6031 -55.995 85.0389 0.268006 -7.56268 0.0177133 6.02899 0.17307 -0.750318 -0.133687 -0.17193 -0.96563 -0.0 0.0 -0.0 12.7514 23.9388 -25.3279 -84.5798 68.5769 18.2035 0.465307 12.9801 -0.0529335 -9.23137 0.415197 -1.10348 -5.67577 -9.83467 34.5814 0.0 0.0 0.0 35.6209 0.837594 -12.1192 -43.8006 -0.726094 6.52196 -21.2485 -23.1256 3.7605 -20.638 0.0 0.0 -0.0 0.0 -0.0 12.7939 25.2936 -12.7784 -11.995 -0.30513 -1.81218 12.3007 -19.3429 1.77023 34.8432 -0.0 -0.0 0.0 0.0 0.0 
